<?xml version="1.0" standalone="no"?>
<!DOCTYPE svg PUBLIC "-//W3C//DTD SVG 20010904//EN"
 "http://www.w3.org/TR/2001/REC-SVG-20010904/DTD/svg10.dtd">
<svg version="1.0" xmlns="http://www.w3.org/2000/svg"
 width="16.000000pt" height="16.000000pt" viewBox="0 0 16.000000 16.000000"
 preserveAspectRatio="xMidYMid meet">
<metadata>
Created by potrace 1.11, written by Peter Selinger 2001-2013
</metadata>
<g transform="translate(0.000000,16.000000) scale(0.006452,-0.006452)"
fill="#000000" stroke="none">
<path d="M538 2259 c-156 -17 -303 -84 -395 -182 -94 -99 -127 -196 -121 -352
3 -94 6 -108 41 -177 27 -56 55 -92 108 -143 63 -59 94 -78 277 -167 114 -55
235 -118 269 -140 148 -93 211 -226 184 -384 -19 -109 -66 -181 -156 -241
-125 -83 -325 -89 -530 -17 -145 52 -135 55 -161 -56 -12 -52 -19 -98 -16
-101 14 -13 141 -59 208 -76 51 -13 111 -17 229 -17 150 -1 165 1 240 27 110
39 176 79 257 155 118 112 175 265 165 447 -5 103 -25 167 -74 243 -78 123
-179 198 -415 308 -249 116 -329 174 -374 269 -43 90 -26 204 41 282 41 48
137 97 223 114 106 20 324 -3 434 -46 13 -5 19 2 28 37 6 23 18 65 26 92 8 27
14 55 14 61 0 12 -96 39 -195 54 -96 15 -224 19 -307 10z"/>
<path d="M2043 1731 c-104 -27 -223 -121 -301 -240 l-42 -63 0 141 0 142 -112
-3 -113 -3 -3 -732 -2 -733 115 0 115 0 0 478 0 477 66 88 c71 94 136 152 218
195 41 21 68 26 141 29 79 3 100 0 175 -26 47 -16 86 -28 87 -27 1 1 22 49 47
106 l45 105 -22 11 c-69 37 -156 56 -267 60 -63 2 -130 0 -147 -5z"/>
</g>
</svg>
